<?xml version="1.0" encoding="UTF-8"?>
<svg xmlns="http://www.w3.org/2000/svg" xmlns:xlink="http://www.w3.org/1999/xlink" width="312pt" height="204pt" viewBox="0 0 312 204" version="1.1">
<g id="surface1">
<path style=" stroke:none;fill-rule:nonzero;fill:rgb(84.705882%,40.784314%,8.627451%);fill-opacity:1;" d="M 273.664062 12.441406 C 273.402344 12.25 260.332031 3.480469 239.109375 12.546875 C 217.585938 21.761719 197.46875 41.855469 188.726562 54.78125 C 179.976562 67.703125 148.671875 128.65625 147.53125 131.496094 C 147.53125 131.496094 147.382812 131.929688 146.820312 131.890625 L 125.421875 131.890625 C 125.421875 131.890625 124.921875 131.648438 125.21875 131.210938 C 125.21875 131.210938 157.921875 71.894531 176.550781 49.269531 C 194.347656 27.660156 215.527344 13.878906 233.511719 8.171875 C 255.804688 1.101562 270.601562 10.042969 273.898438 11.984375 C 274.527344 12.34375 273.917969 12.625 273.664062 12.441406 "/>
<path style=" stroke:none;fill-rule:nonzero;fill:rgb(89.803922%,69.803922%,15.294118%);fill-opacity:1;" d="M 118.9375 131.28125 C 118.9375 131.28125 118.9375 131.859375 118.21875 131.859375 L 94.699219 131.859375 C 94.699219 131.859375 93.925781 131.859375 94.417969 131.351562 C 94.917969 130.855469 96.339844 128.933594 99.621094 123.371094 C 99.621094 123.371094 140.71875 62.101562 161.726562 39.742188 C 182.390625 17.730469 195.246094 11.167969 212.621094 4.898438 C 232.3125 -2.21875 251.519531 -0.285156 260.839844 2.613281 C 260.839844 2.613281 261.265625 2.699219 261.109375 3.046875 C 260.984375 3.390625 260.488281 3.117188 260.488281 3.117188 C 260.488281 3.117188 249.710938 0.839844 242.933594 2.203125 C 242.933594 2.203125 222.765625 5.183594 202.945312 18.878906 C 183.84375 32.074219 173.410156 46.410156 172.554688 47.273438 C 172.554688 47.273438 138.335938 94.90625 118.9375 131.28125 "/>
<path style=" stroke:none;fill-rule:nonzero;fill:rgb(79.215686%,12.156863%,11.372549%);fill-opacity:1;" d="M 247.679688 63.429688 C 233.71875 67.75 218.9375 66.488281 208.21875 64.027344 C 208.152344 63.96875 208.152344 63.855469 208.191406 63.800781 C 218.453125 48.253906 225.425781 41.648438 225.425781 41.648438 C 253.363281 13.320312 270.523438 15.199219 277.890625 23.769531 C 285.691406 32.808594 275.621094 54.761719 247.679688 63.429688 M 280.945312 23.59375 C 277.109375 16.972656 266.027344 9.082031 247.679688 14.074219 C 226.277344 19.867188 203.378906 42.125 191.679688 58.304688 C 191.429688 58.617188 191.136719 58.433594 191.136719 58.433594 C 181.109375 54.207031 164.1875 45.828125 137.953125 28.523438 C 111.238281 10.90625 100.636719 5.835938 85.582031 1.894531 C 69.191406 -2.386719 50.777344 5.175781 47.351562 6.460938 C 33.429688 11.691406 28.054688 12.742188 27.308594 12.742188 C 26.535156 12.742188 27.292969 13.683594 27.292969 13.683594 C 40.089844 13.023438 57.035156 24.230469 70.757812 41.269531 C 83.765625 57.433594 101.078125 75.894531 119.386719 87.917969 C 132.378906 96.46875 148.433594 103.222656 165.257812 105.210938 C 165.570312 105.210938 165.519531 105.496094 165.441406 105.648438 C 159.066406 118.730469 153.953125 129.382812 153.03125 131.449219 C 152.929688 131.679688 153.28125 131.804688 153.28125 131.804688 L 174.273438 131.804688 C 174.304688 131.710938 174.644531 131.851562 174.734375 131.503906 C 175.496094 128.484375 177.277344 124.308594 178.167969 122.140625 C 180.632812 116.214844 182.925781 111.085938 185.328125 105.894531 C 185.421875 105.734375 185.644531 105.6875 185.746094 105.679688 C 195.109375 105.390625 203.992188 104.113281 212.199219 102.046875 C 238.925781 95.28125 253.035156 87.53125 268.675781 68.761719 C 283.976562 50.394531 285.785156 31.957031 280.945312 23.59375 "/>
<path style=" stroke:none;fill-rule:nonzero;fill:rgb(1.568627%,0%,0%);fill-opacity:1;" d="M 17 153.652344 C 17 153.652344 17.265625 153.265625 17.765625 153.265625 L 28.648438 153.265625 C 28.648438 153.265625 29.019531 153.40625 28.648438 153.789062 L 13.941406 165.945312 C 13.941406 165.945312 12.78125 167.871094 14.703125 167.871094 L 30.429688 167.871094 C 30.429688 167.871094 30.933594 167.871094 30.933594 168.375 L 30.933594 171.320312 C 30.933594 171.320312 30.808594 171.816406 30.429688 172.082031 L 15.472656 181.921875 C 15.472656 181.921875 14.960938 182.816406 15.722656 182.816406 L 29.792969 182.816406 C 29.792969 182.816406 30.429688 182.960938 30.050781 183.839844 C 29.660156 184.742188 29.660156 185.253906 29.660156 185.882812 L 29.660156 199.574219 C 29.660156 199.574219 30.050781 202.90625 25.574219 203.796875 C 21.039062 204.710938 13.285156 202.269531 10.09375 202.132812 C 7.039062 202 3.960938 202.199219 1.539062 203.800781 C 1.539062 203.800781 0.882812 203.929688 1.277344 203.273438 C 1.660156 202.644531 2.175781 201.101562 2.042969 196.128906 C 2.042969 196.128906 2.042969 195.289062 2.691406 195.226562 C 3.324219 195.164062 12.851562 193.808594 18.917969 196.128906 C 20.582031 196.753906 20.96875 195.484375 20.96875 194.578125 L 20.96875 187.8125 C 20.96875 187.8125 20.835938 187.300781 20.328125 187.300781 L 3.589844 187.300781 C 3.589844 187.300781 1.414062 187.679688 0.761719 185.503906 C 0.0976562 183.257812 1.90625 182.300781 2.550781 181.921875 L 15.585938 172.707031 C 15.585938 172.707031 15.722656 172.347656 15.089844 172.347656 L 3.828125 172.347656 C 3.828125 172.347656 1.277344 172.542969 0.628906 170.152344 C 0.0898438 168.089844 1.148438 166.328125 2.175781 165.6875 Z M 17 153.652344 "/>
<path style=" stroke:none;fill-rule:nonzero;fill:rgb(1.568627%,0%,0%);fill-opacity:1;" d="M 32.832031 157.503906 L 46.921875 157.503906 C 46.921875 157.503906 47.421875 157.386719 47.421875 157.011719 L 47.421875 153.652344 C 47.421875 153.652344 47.371094 153.265625 47.789062 153.242188 L 61.691406 153.242188 C 61.691406 153.242188 62.167969 153.183594 62.167969 153.652344 L 62.167969 157.011719 C 62.167969 157.011719 62.167969 157.503906 62.664062 157.503906 L 73.671875 157.503906 C 73.671875 157.503906 74.160156 157.386719 74.160156 157.804688 L 74.160156 161.613281 C 74.160156 161.613281 74.160156 162.101562 73.671875 162.101562 L 55.851562 162.101562 C 55.851562 162.101562 55.34375 162.007812 54.945312 162.578125 C 54.945312 162.578125 46.859375 171.921875 46.535156 172.367188 C 45.96875 173.125 46.441406 174.183594 47.15625 174.117188 L 62.5625 174.117188 C 62.5625 174.117188 63.644531 174.25 63.421875 173.125 L 62.847656 168.242188 C 62.847656 168.242188 62.945312 167.476562 63.625 167.476562 L 71.761719 167.476562 C 71.761719 167.476562 72.277344 167.398438 72.328125 168.136719 C 72.417969 169.191406 72.648438 176.636719 73.507812 177.996094 C 73.507812 177.996094 74.078125 178.84375 73.191406 178.8125 L 64.65625 178.8125 C 64.65625 178.8125 64.183594 178.789062 64.183594 179.371094 L 64.183594 197.558594 C 64.183594 197.558594 64.226562 198.601562 65.136719 198.613281 L 77.382812 198.613281 C 77.753906 198.613281 78.007812 198.976562 77.425781 199.328125 C 76.703125 199.78125 74.621094 202.871094 74.621094 202.871094 C 74.621094 202.871094 74.238281 203.441406 73.644531 203.441406 L 60.0625 203.441406 C 60.0625 203.441406 53.746094 203.542969 53.863281 195.582031 C 53.863281 195.582031 53.828125 186.367188 53.863281 185.984375 C 53.929688 185.402344 53.304688 185.171875 52.875 185.699219 L 43.527344 199.230469 C 43.527344 199.230469 41.628906 202.96875 37.402344 203.292969 C 37.402344 203.292969 30.566406 203.558594 30.226562 203.570312 C 29.898438 203.601562 29.527344 203.15625 30.050781 202.871094 C 32.972656 201.265625 36.710938 194.371094 42.164062 186.460938 C 44.816406 182.636719 46.25 182.726562 48.464844 182.726562 L 53.253906 182.726562 C 53.253906 182.726562 53.640625 182.726562 53.785156 182.148438 L 53.785156 179.15625 C 53.785156 179.15625 53.785156 178.789062 53.199219 178.789062 L 36.195312 178.789062 C 36.195312 178.789062 33.945312 178.925781 32.972656 176.601562 C 32.199219 174.675781 33.3125 172.984375 34.105469 172.402344 L 43.503906 162.796875 C 43.503906 162.796875 43.867188 162.007812 43.09375 162.007812 L 34.464844 162.007812 C 34.464844 162.007812 33.789062 162.089844 33.695312 161.421875 C 33.59375 160.660156 32.652344 158.355469 32.441406 157.960938 C 32.257812 157.589844 32.199219 157.503906 32.832031 157.503906 "/>
<path style=" stroke:none;fill-rule:nonzero;fill:rgb(1.568627%,0%,0%);fill-opacity:1;" d="M 80.695312 172.050781 L 145.230469 172.050781 C 145.65625 172.019531 146.007812 172.265625 146.007812 172.777344 L 146.007812 178.496094 C 146.007812 178.496094 146.097656 179.175781 145.421875 179.308594 L 82.335938 179.308594 C 82.335938 179.308594 81.449219 179.503906 81.363281 178.167969 C 81.25 176.617188 80.355469 173.539062 80.011719 172.945312 C 79.707031 172.371094 79.785156 172.019531 80.695312 172.050781 "/>
<path style=" stroke:none;fill-rule:nonzero;fill:rgb(1.568627%,0%,0%);fill-opacity:1;" d="M 229.433594 176.804688 C 222.46875 170.089844 215.050781 159.691406 213.199219 156.722656 C 211.160156 153.484375 208.257812 153.5625 208.257812 153.5625 L 173.226562 153.5625 C 173.226562 153.5625 170.324219 153.484375 168.285156 156.722656 C 166.433594 159.691406 159.03125 170.089844 152.058594 176.804688 C 152.058594 176.804688 151.535156 177.535156 152.511719 177.535156 C 153.488281 177.535156 161.476562 177.578125 162.207031 177.535156 C 162.886719 177.507812 164.902344 177.925781 167.414062 174.382812 C 167.414062 174.382812 175.929688 161.621094 179.132812 158.847656 C 179.132812 158.847656 180.070312 157.863281 181.039062 157.863281 L 200.441406 157.863281 C 201.414062 157.863281 202.34375 158.847656 202.34375 158.847656 C 205.546875 161.621094 214.082031 174.382812 214.082031 174.382812 C 216.582031 177.925781 218.613281 177.507812 219.304688 177.535156 C 220.011719 177.578125 228.015625 177.535156 229.003906 177.535156 C 229.941406 177.535156 229.433594 176.804688 229.433594 176.804688 "/>
<path style=" stroke:none;fill-rule:nonzero;fill:rgb(1.568627%,0%,0%);fill-opacity:1;" d="M 191.246094 169.003906 L 201.5 169.003906 C 201.5 169.003906 201.824219 169.070312 201.824219 169.585938 L 201.824219 182.058594 C 201.824219 182.058594 201.882812 182.496094 202.265625 182.496094 L 214.285156 182.496094 C 214.285156 182.496094 214.726562 182.4375 214.46875 182.886719 C 214.21875 183.320312 213.761719 185.957031 213.894531 186.394531 C 214.035156 186.847656 213.5 186.847656 213.5 186.847656 L 202.128906 186.847656 C 202.128906 186.847656 201.742188 186.847656 201.742188 187.242188 L 201.742188 198.097656 C 201.742188 198.097656 201.742188 198.554688 202.128906 198.554688 L 225.4375 198.554688 C 225.4375 198.554688 225.96875 198.613281 225.90625 199.054688 C 225.835938 199.5 225.835938 202.515625 225.90625 202.839844 C 225.96875 203.15625 225.90625 203.339844 225.578125 203.339844 L 155.726562 203.339844 C 155.726562 203.339844 155.355469 203.15625 155.460938 202.707031 C 155.609375 202.257812 154.566406 199.328125 154.445312 199.121094 C 154.3125 198.933594 154.445312 198.554688 154.898438 198.554688 L 171.414062 198.554688 C 171.414062 198.554688 171.820312 198.476562 171.875 198.035156 C 171.921875 197.605469 171.875 179.371094 171.542969 178.605469 C 171.214844 177.828125 171.488281 178.019531 171.875 178.019531 L 182.265625 178.019531 C 182.265625 178.019531 182.527344 178.019531 182.527344 178.464844 L 182.527344 198.171875 C 182.527344 198.171875 182.46875 198.554688 182.957031 198.554688 L 190.460938 198.554688 C 190.460938 198.554688 190.660156 198.554688 190.84375 198.097656 C 191.035156 197.660156 192.652344 179.695312 190.773438 169.585938 C 190.773438 169.585938 190.707031 169.003906 191.246094 169.003906 "/>
<path style=" stroke:none;fill-rule:nonzero;fill:rgb(1.568627%,0%,0%);fill-opacity:1;" d="M 248.515625 193.183594 L 260.167969 193.183594 C 260.167969 193.183594 260.613281 193.183594 260.644531 193.460938 C 260.691406 193.894531 260.308594 193.875 260.054688 194.027344 C 258.621094 194.894531 254.835938 197.636719 250.609375 201.871094 C 248.910156 203.570312 247.121094 203.382812 246.3125 203.382812 L 235.792969 203.382812 C 235.382812 203.382812 235.082031 202.964844 235.691406 202.636719 C 237.9375 201.417969 241.519531 197.796875 242.847656 196.734375 C 244.195312 195.675781 246.820312 193.183594 248.515625 193.183594 "/>
<path style=" stroke:none;fill-rule:nonzero;fill:rgb(1.568627%,0%,0%);fill-opacity:1;" d="M 288.898438 162.535156 L 285.832031 167.414062 C 285.832031 167.414062 285.644531 167.871094 285.25 167.78125 L 261.746094 167.78125 C 261.347656 167.871094 261.15625 167.414062 261.15625 167.414062 L 258.097656 162.535156 C 257.855469 162.210938 258.238281 162.101562 258.238281 162.101562 L 288.75 162.101562 C 288.75 162.101562 289.132812 162.210938 288.898438 162.535156 M 310.921875 157.59375 L 303.859375 157.59375 C 303.859375 157.59375 303.429688 157.546875 303.753906 157.066406 C 303.753906 157.066406 305.589844 154.230469 305.980469 153.785156 C 306.359375 153.371094 305.957031 153.273438 305.496094 153.273438 L 295.414062 153.273438 C 295.414062 153.273438 294.589844 153.207031 294.199219 153.785156 L 292.03125 157.371094 C 292.03125 157.371094 291.828125 157.628906 291.570312 157.628906 L 287.921875 157.628906 C 287.921875 157.628906 287.589844 157.644531 287.589844 157.25 L 287.589844 153.652344 C 287.589844 153.652344 287.535156 153.273438 287.242188 153.273438 L 277.078125 153.273438 C 277.078125 153.273438 276.75 153.324219 276.75 153.703125 L 276.75 157.125 C 276.75 157.125 276.792969 157.546875 276.460938 157.546875 L 270.8125 157.546875 C 270.46875 157.546875 270.523438 157.125 270.523438 157.125 L 270.523438 153.703125 C 270.523438 153.324219 270.171875 153.273438 270.171875 153.273438 L 260.019531 153.273438 C 259.71875 153.273438 259.6875 153.652344 259.6875 153.652344 L 259.6875 157.25 C 259.6875 157.644531 259.332031 157.628906 259.332031 157.628906 L 255.425781 157.628906 C 255.171875 157.628906 254.972656 157.371094 254.972656 157.371094 L 252.804688 153.785156 C 252.4375 153.207031 251.605469 153.273438 251.605469 153.273438 L 241.5 153.273438 C 241.042969 153.273438 240.640625 153.371094 241.039062 153.785156 C 241.414062 154.230469 243.238281 157.066406 243.238281 157.066406 C 243.570312 157.546875 243.128906 157.59375 243.128906 157.59375 L 235.082031 157.59375 C 234.707031 157.691406 234.21875 157.59375 234.707031 158.171875 C 235.316406 158.933594 235.792969 161.101562 235.792969 161.613281 C 235.792969 162.15625 236.136719 162.15625 236.136719 162.15625 L 246.351562 162.15625 C 246.773438 162.101562 246.824219 162.390625 246.824219 162.390625 L 249.988281 167.277344 C 250.332031 167.765625 249.988281 167.816406 249.988281 167.816406 L 237.867188 167.816406 C 237.519531 167.816406 237.242188 167.945312 237.582031 168.289062 C 238.03125 168.746094 238.289062 170.285156 238.203125 170.859375 C 238.097656 171.449219 238.585938 171.34375 238.585938 171.34375 L 267.285156 171.34375 C 267.722656 171.34375 267.777344 171.636719 267.777344 171.636719 L 267.777344 175.71875 C 267.777344 176.066406 267.484375 176.101562 267.484375 176.101562 L 238.289062 176.101562 C 237.90625 176.101562 237.582031 176.101562 237.964844 176.628906 C 238.34375 177.164062 238.546875 178.734375 238.433594 179.128906 C 238.34375 179.503906 238.78125 179.648438 238.78125 179.648438 L 267.453125 179.648438 C 267.828125 179.648438 267.875 179.953125 267.875 179.953125 L 267.875 184.210938 C 267.875 184.648438 267.601562 184.546875 267.601562 184.546875 L 238.429688 184.546875 C 238.03125 184.546875 237.808594 184.742188 238.03125 185.039062 C 238.660156 185.789062 238.546875 187.171875 238.546875 187.65625 C 238.546875 188.171875 238.964844 188.136719 238.964844 188.136719 L 267.492188 188.136719 C 268.035156 188.136719 268.035156 188.585938 268.035156 188.585938 C 268.3125 199.292969 267.453125 202.148438 266.730469 202.917969 C 266.214844 203.457031 266.824219 203.542969 266.824219 203.542969 L 278.324219 203.542969 C 278.324219 203.542969 279.019531 203.726562 278.835938 202.644531 C 278.652344 201.605469 278.695312 188.648438 278.71875 188.585938 C 278.71875 188.585938 278.71875 188.136719 279.253906 188.136719 L 309.742188 188.136719 C 309.742188 188.136719 310.238281 188.136719 310.214844 187.613281 C 310.214844 187.546875 310.207031 185.304688 310.234375 185.15625 C 310.296875 184.789062 310.234375 184.546875 309.847656 184.546875 L 279.148438 184.546875 C 279.148438 184.546875 278.871094 184.648438 278.871094 184.210938 L 278.871094 179.953125 C 278.871094 179.953125 278.917969 179.648438 279.296875 179.648438 L 309.742188 179.648438 C 309.742188 179.648438 310.0625 179.695312 310.0625 179.128906 C 310.082031 178.597656 310.0625 176.679688 310.0625 176.628906 C 310.117188 176.203125 309.992188 176.101562 309.617188 176.101562 L 279.269531 176.101562 C 279.269531 176.101562 278.960938 176.066406 278.960938 175.71875 L 278.960938 171.636719 C 278.960938 171.636719 279.019531 171.34375 279.449219 171.34375 L 309.785156 171.34375 C 309.785156 171.34375 310.257812 171.449219 310.285156 170.859375 C 310.324219 170.238281 310.246094 168.441406 310.257812 168.394531 C 310.363281 167.996094 310.144531 167.816406 309.820312 167.816406 L 297.011719 167.816406 C 297.011719 167.816406 296.667969 167.765625 297.011719 167.277344 L 300.175781 162.390625 C 300.175781 162.390625 300.203125 162.101562 300.652344 162.15625 L 311.113281 162.15625 C 311.113281 162.15625 311.464844 162.101562 311.464844 161.566406 C 311.464844 161.058594 311.480469 158.25 311.480469 158.171875 C 311.515625 157.878906 311.296875 157.691406 310.921875 157.59375 "/>
<path style=" stroke:none;fill-rule:nonzero;fill:rgb(1.568627%,0%,0%);fill-opacity:1;" d="M 298.351562 193.183594 L 286.71875 193.183594 C 286.71875 193.183594 286.261719 193.183594 286.242188 193.460938 C 286.191406 193.894531 286.570312 193.875 286.8125 194.027344 C 288.242188 194.894531 292.03125 197.636719 296.242188 201.871094 C 297.9375 203.570312 299.75 203.382812 300.5625 203.382812 L 311.058594 203.382812 C 311.484375 203.382812 311.785156 202.964844 311.160156 202.636719 C 308.933594 201.417969 305.359375 197.796875 304 196.734375 C 302.667969 195.675781 300.027344 193.183594 298.351562 193.183594 "/>
<path style=" stroke:none;fill-rule:nonzero;fill:rgb(1.568627%,0%,0%);fill-opacity:1;" d="M 265.761719 115.980469 L 265.761719 110.925781 L 269.097656 110.925781 C 270.796875 110.925781 272.609375 111.296875 272.609375 113.316406 C 272.609375 115.832031 270.757812 115.980469 268.679688 115.980469 Z M 265.761719 118.03125 L 268.578125 118.03125 L 272.828125 125.070312 L 275.597656 125.070312 L 270.976562 117.925781 C 273.335938 117.640625 275.167969 116.390625 275.167969 113.480469 C 275.167969 110.269531 273.269531 108.863281 269.449219 108.863281 L 263.308594 108.863281 L 263.308594 125.070312 L 265.761719 125.070312 Z M 265.761719 118.03125 "/>
<path style=" stroke:none;fill-rule:nonzero;fill:rgb(1.568627%,0%,0%);fill-opacity:1;" d="M 268.679688 129.757812 C 261.589844 129.757812 255.855469 124.035156 255.855469 116.941406 C 255.855469 109.851562 261.589844 104.113281 268.679688 104.113281 C 275.746094 104.113281 281.503906 109.851562 281.503906 116.941406 C 281.503906 124.035156 275.746094 129.757812 268.679688 129.757812 M 268.679688 102.375 C 260.625 102.375 254.128906 108.886719 254.128906 116.941406 C 254.128906 124.976562 260.625 131.511719 268.679688 131.511719 C 276.722656 131.511719 283.253906 124.976562 283.253906 116.941406 C 283.253906 108.886719 276.722656 102.375 268.679688 102.375 "/>
</g>
</svg>
